<svg width="81" height="61" viewBox="0 0 81 61" fill="none" xmlns="http://www.w3.org/2000/svg">
<g clip-path="url(#clip0_12_344)">
<path fill-rule="evenodd" clip-rule="evenodd" d="M60.8783 15.352C60.7649 15.3684 60.716 15.5151 60.6523 15.7058C60.572 15.9466 60.4683 16.2575 60.1819 16.4644C59.6688 16.8353 59.229 17.3915 59.6688 18.2444C58.4226 19.8389 54.9041 20.2097 51.9353 16.7611C49.1131 13.4979 46.7674 11.8292 44.8982 11.2359C43.9086 10.7538 42.4425 10.7167 40.9032 10.7909C40.9032 10.7909 39.1072 10.7167 37.0914 10.6796C37.3453 9.96604 37.2518 9.40624 37.1952 9.0679C37.1783 8.96669 37.1647 8.8853 37.1647 8.82553C37.1647 8.78845 37.238 8.71428 37.348 8.6772C38.6308 8.64012 40.1701 8.52887 42.5891 8.04681C47.867 6.93434 48.6733 5.52523 47.8303 5.22857C49.6996 4.89483 50.1394 3.85653 49.1864 3.81945C50.5792 3.55988 51.1656 2.52158 50.3593 2.55866C51.752 2.11368 51.5321 1.00121 50.6892 1.29787C51.862 0.815804 51.5321 -0.185412 50.7991 0.0741627C50.666 0.119068 50.5194 0.177568 50.3593 0.241431L50.3593 0.241456L50.3591 0.241523L50.3588 0.24164C50.2547 0.283189 50.1449 0.327004 50.0294 0.370819C49.8894 0.413313 49.7294 0.469332 49.5454 0.533712C48.7663 0.806417 47.5586 1.22912 45.6312 1.40912C43.6982 1.55956 42.196 1.33632 40.5111 1.08592C39.2889 0.904276 37.9705 0.708345 36.3217 0.630394C31.667 0.333737 28.1851 1.8541 28.0385 3.81945C27.8925 5.385 29.6303 6.52701 31.0659 7.4704C31.4325 7.71133 31.7794 7.93929 32.0701 8.15805C33.6095 9.3076 32.8765 10.7167 31.667 10.4571C31.0434 10.2866 29.9317 9.36351 28.7558 8.38709C27.3743 7.23994 25.9042 6.01922 25.033 5.85896C23.3471 5.52523 22.3941 6.93434 22.3941 6.93434C21.2946 7.15684 20.8914 7.75015 21.2579 8.15805C20.7311 8.15805 20.438 8.51268 20.2107 8.78776C20.1533 8.85719 20.1001 8.92155 20.0484 8.97386C19.6819 8.97386 19.7186 9.38176 19.7186 9.38176C19.7186 9.82675 20.3416 10.4942 20.4149 10.2346C20.6348 9.60425 21.5511 9.60425 21.5511 10.1976C21.5511 10.7909 20.9281 10.9021 20.5615 10.5313C20.3061 10.2729 20.3533 10.5727 20.4054 10.9037C20.428 11.0477 20.4516 11.1976 20.4516 11.31C20.4516 11.3909 20.4481 11.4629 20.4449 11.5284L20.4449 11.5285C20.4336 11.7635 20.4262 11.9148 20.5982 12.0887C20.4516 11.6808 21.2213 10.9763 21.881 11.6808C22.2126 12.0163 23.0842 13.2681 23.9975 14.5797C25.0023 16.0227 26.0575 17.538 26.4991 17.9848C26.5228 18.0327 26.5617 18.0651 26.6061 18.1021C26.6304 18.1223 26.6564 18.1439 26.6824 18.1702C26.4258 19.3568 25.5828 21.1368 24.6665 21.8043C24.2267 21.3593 23.1272 21.6188 23.4204 22.2492C23.4937 22.3976 23.6036 22.4717 23.7502 22.5459H25.3629L25.6928 22.4346C26.3891 22.1009 28.1118 20.9514 29.0281 19.6906C29.083 19.6165 29.1288 19.5516 29.1746 19.4868L29.1747 19.4866C29.2205 19.4217 29.2663 19.3568 29.3213 19.2827H29.8344C29.6511 20.1726 29.138 21.0626 28.405 21.8043C27.9652 21.3593 26.8656 21.6188 27.1588 22.2492C27.2321 22.3976 27.3421 22.4717 27.4887 22.5459H29.1014L29.4312 22.4346C30.1276 22.1009 31.8502 20.9514 32.7665 19.6906C33.243 19.0231 33.4629 18.6523 33.5362 18.3185C33.7195 18.2444 33.9027 18.1702 34.086 18.059C37.348 16.5757 39.1805 15.9824 40.6466 15.6857C40.5367 16.6128 40.9765 17.1319 41.5996 17.7623C41.7993 17.9644 41.9766 18.1255 42.128 18.2632C42.5878 18.6812 42.8094 18.8826 42.6991 19.3568C42.4738 20.2034 41.5421 21.1072 41.0949 21.5409C41.0328 21.6012 40.98 21.6523 40.9398 21.693C40.2434 21.2109 39.4738 21.6188 39.6937 22.138C39.767 22.3234 39.9502 22.4346 40.1701 22.5088H41.4163C41.4713 22.4903 41.5171 22.481 41.5629 22.4717C41.6087 22.4625 41.6545 22.4532 41.7095 22.4346C42.9557 21.8784 44.5317 20.2468 44.6416 19.0602C44.6044 19.0225 44.5656 18.9879 44.5275 18.9538C44.378 18.8203 44.2385 18.6957 44.2385 18.4298C45.0082 18.8748 45.9611 19.1343 46.6575 19.1343C47.0973 19.1343 48.1235 21.0626 48.1235 21.7672C47.5371 21.4705 46.8407 21.693 47.1706 22.3234C47.2072 22.3976 47.2806 22.4717 47.3539 22.5088H48.8932C49.1498 22.3605 49.3697 22.138 49.443 21.7672C49.6996 20.6918 48.6733 18.8748 48.0869 17.9477C46.7979 17.7449 46.8521 17.0211 46.9373 15.8826C46.9611 15.5643 46.9873 15.2136 46.9873 14.8328C46.9873 14.2766 46.914 13.8316 46.8407 13.4608C48.0502 13.9799 49.4063 15.0182 51.4588 17.3915C55.2339 21.6559 59.3023 20.0614 60.4751 18.7264C61.9045 17.0207 61.1349 15.3149 60.8783 15.352ZM41.453 48.3179H38.3009L33.8661 42.1252H26.4625V48.3179H23.7502V32.0389H35.8086C37.5312 32.0389 38.8873 32.4839 39.8403 33.4109C40.8299 34.338 41.3064 35.5988 41.3064 37.1562C41.3064 38.5283 40.9032 39.6407 40.0969 40.4936C39.3638 41.2723 38.3376 41.7544 37.0548 41.9769L41.453 48.3179ZM35.4054 39.6778C37.4946 39.6778 38.5575 38.8249 38.5575 37.1562C38.5575 35.3392 37.4213 34.4492 35.1855 34.4492H26.4625V39.6778H35.4054ZM60.8783 34.4492H53.9145V48.3179H51.2022V34.4492H44.2384V32.0389H60.8783V34.4492ZM64.9099 48.3179H81V45.8705H67.6222V41.0499L77.3715 41.0869V38.6395H67.6222V34.4492H80.5235V32.0389H64.9099V48.3179ZM21.771 54.9556V61H27.3054V60.1471H22.7606V54.9556H21.771ZM29.7978 61L33.0597 54.9556H34.1226L37.4579 61H36.3584L35.5887 59.5167H31.557L30.7873 61H29.7978ZM35.1855 58.738L33.5729 55.6602L31.9602 58.738H35.1855ZM41.8928 56.921C41.8928 56.5502 41.8928 56.2535 41.8561 56.031C41.9684 56.2582 42.0531 56.4436 42.1188 56.5872C42.1603 56.6781 42.1942 56.7523 42.2226 56.8097L44.605 60.073H44.8615L47.1339 56.6985C47.2439 56.5502 47.3538 56.3277 47.5005 56.031L47.4638 56.921V61H48.3801V54.9556H47.4638L44.7516 58.8863L41.8561 54.9556H41.0498V61H41.8928V56.921ZM53.1448 60.9629V54.9556H57.9462C58.386 54.9556 58.7158 55.0298 58.8991 55.2152C59.0824 55.4006 59.1923 55.6973 59.1923 56.1052V57.4401C59.1923 57.848 59.0824 58.1447 58.8991 58.3301C58.7158 58.5155 58.386 58.5897 57.9462 58.5897H54.1344V60.9629H53.1448ZM57.5796 55.7344H54.1344V57.848H57.5796C57.8362 57.848 57.9828 57.8109 58.0928 57.6997C58.2027 57.6255 58.2394 57.4401 58.2394 57.2176V56.3647C58.2394 56.1423 58.2027 55.9568 58.0928 55.8827C57.9828 55.7714 57.7995 55.7344 57.5796 55.7344ZM17.7394 48.3179H20.7081L12.0584 32.0389H8.64977L0 48.3179H3.00543L4.87466 44.6839H15.8701L17.7394 48.3179ZM10.3724 34.338L14.514 42.2365H6.15747L10.3724 34.338Z" fill="black"/>
</g>
<defs>
<clipPath id="clip0_12_344">
<rect width="81" height="61" fill="white"/>
</clipPath>
</defs>
</svg>
