<?xml version="1.0" encoding="UTF-8"?>
<!DOCTYPE svg PUBLIC "-//W3C//DTD SVG 1.1//EN" "http://www.w3.org/Graphics/SVG/1.1/DTD/svg11.dtd">
<!-- Creator: CorelDRAW 2018 -->
<svg xmlns="http://www.w3.org/2000/svg" xml:space="preserve" width="185px" height="63px" version="1.1" style="shape-rendering:geometricPrecision; text-rendering:geometricPrecision; image-rendering:optimizeQuality; fill-rule:evenodd; clip-rule:evenodd"
viewBox="0 0 591 200.94"
 xmlns:xlink="http://www.w3.org/1999/xlink">
 <defs>
  <style type="text/css">
   <![CDATA[
    .fil0 {fill:black}
    .fil1 {fill:#CCA045;fill-rule:nonzero}
   ]]>
  </style>
 </defs>
 <g id="Слой_x0020_1">
  <metadata id="CorelCorpID_0Corel-Layer"/>
  <g id="_463084232">
   <path class="fil0" d="M198.6 157.96c-6.66,2.39 -10.41,7.92 -10.41,15.52 0,10.47 9.49,17.86 20.41,15.9 4.1,-0.75 7.13,-1.97 7.48,-3.03 0.52,-1.33 -0.1,-1.49 -2.15,-0.43 -2.82,1.38 -8,1.65 -11.69,0.53 -7.28,-2.18 -11.12,-10.63 -8.66,-19.19 1.79,-6.32 8.35,-9.78 15.22,-7.92 3.75,0.96 5.03,2.02 5.03,4.04 0,1.33 0.77,2.5 1.33,1.97 0.1,-0.16 0.36,-1.7 0.51,-3.46l0.36 -3.19 -3.07 -0.85c-4.05,-1.22 -10.87,-1.17 -14.36,0.11l0 0z"/>
   <path class="fil0" d="M228.9 157.91c-3.59,1.27 -6.36,3.72 -8.15,7.12 -2.1,3.99 -2.41,10.42 -0.77,14.99 2.31,6.33 7.38,9.62 14.61,9.51 6.77,-0.05 12.31,-3.5 15.13,-9.46 1.08,-2.23 1.28,-3.45 1.28,-7.7 0,-4.63 -0.15,-5.32 -1.54,-7.93 -1.74,-3.29 -3.74,-5.04 -7.43,-6.48 -3.33,-1.33 -9.49,-1.33 -13.13,-0.05l0 0zm10.36 1.75c2.1,0.69 4.77,3.4 6.05,6.33 0.87,1.91 1.08,3.4 1.08,7.7 0,4.89 -0.16,5.53 -1.54,8.24 -2.56,4.79 -7.33,6.7 -12.77,5.11 -5.23,-1.6 -8.61,-7.55 -8.66,-15.26 -0.06,-10.05 6.46,-15.04 15.84,-12.12l0 0z"/>
   <path class="fil0" d="M301.66 157.69c-7.79,2.66 -12.05,9.09 -11.23,17.01 0.92,9.25 7.43,14.78 17.23,14.83 4.71,0 9.48,-1.32 10.46,-2.92 0.87,-1.43 0.15,-1.54 -3.08,-0.37 -6.51,2.39 -14.1,0.21 -17.48,-5 -3.69,-5.68 -3.34,-14.14 0.76,-18.66 3.34,-3.66 10.16,-4.83 15.03,-2.6 2.1,1.01 2.41,1.33 2.72,3.3 0.35,2.39 1.18,2.87 1.53,0.95 0.98,-4.83 0.88,-5.15 -1.12,-6.06 -2.62,-1.17 -11.95,-1.49 -14.82,-0.48z"/>
   <path class="fil0" d="M253.41 158.12c0.16,0.37 0.77,0.8 1.49,0.85 2.46,0.37 2.51,0.58 2.51,13.13 0,13.98 -0.15,15.04 -1.95,15.26 -0.72,0.1 -1.38,0.47 -1.54,0.79 -0.15,0.54 0.98,0.69 4.46,0.69 4.82,0 5.95,-0.53 3.03,-1.38l-1.69 -0.53 -0.16 -11.85c-0.05,-7.76 0.05,-11.7 0.41,-11.49 0.26,0.16 4.67,5.69 9.75,12.23 5.07,6.54 9.74,12.28 10.35,12.71 0.62,0.47 1.69,0.85 2.31,0.85l1.18 0 0 -14.25c0,-14.94 0.1,-15.73 2.25,-16.16 0.57,-0.05 1.08,-0.48 1.24,-0.85 0.15,-0.48 -0.98,-0.64 -4.52,-0.64 -3.53,0 -4.66,0.16 -4.51,0.64 0.16,0.37 0.67,0.8 1.23,0.9 2.21,0.43 2.26,0.75 2.26,12.6 0,8.77 -0.15,11.38 -0.62,11.38 -0.36,-0.06 -5.02,-5.8 -10.3,-12.76l-9.64 -12.76 -3.85 0c-2.87,0 -3.84,0.16 -3.69,0.64l0 0z"/>
   <path class="fil0" d="M321.6 158.12c0.16,0.37 0.93,0.8 1.75,0.96l1.48 0.26 0.31 6.65c0.46,9.25 0,20.57 -0.92,21.31 -0.36,0.32 -0.67,0.8 -0.67,1.07 0,0.26 4.72,0.47 10.51,0.47l10.51 0 0 -3.72c0,-2.07 -0.2,-3.72 -0.46,-3.72 -0.56,0 -1.07,1.33 -1.07,2.66 0,2.18 -1.29,2.66 -7.39,2.66l-5.79 0 -0.36 -2.45c-0.41,-3.13 -0.41,-6.54 0,-8.61 0.26,-1.33 0.61,-1.65 2.1,-1.86 2.36,-0.42 6.87,0.16 7.08,0.9 0.1,0.32 0.3,1.23 0.46,2.08 0.66,3.08 1.33,1.27 1.33,-3.62 0,-4.94 -0.61,-6.64 -1.33,-3.61 -0.51,2.07 -0.98,2.28 -5.44,2.28l-4 0 0 -6.06 0 -6 1.9 -0.32c2.21,-0.37 7.69,0.1 9.03,0.8 0.56,0.31 0.87,1.06 0.87,2.28 0,1.28 0.25,1.86 0.77,1.86 0.41,0 0.77,-0.42 0.77,-1.01 0,-0.53 0.15,-2.07 0.3,-3.45l0.36 -2.45 -11.12 0c-8.72,0 -11.13,0.16 -10.98,0.64l0 0z"/>
   <path class="fil0" d="M348.16 158.01c0,0.32 0.72,0.69 1.54,0.91 0.87,0.16 1.79,0.74 2.05,1.27 0.31,0.53 0.51,6.33 0.51,13.08 0,13.02 -0.15,13.77 -2.51,14.09 -0.72,0.1 -1.33,0.47 -1.49,0.79 -0.15,0.54 1.29,0.69 6.05,0.69 4.77,0 6.21,-0.15 6.05,-0.69 -0.15,-0.32 -1.02,-0.74 -2,-0.9l-1.74 -0.27 -0.15 -13.39c-0.16,-15.52 -0.41,-14.83 5.18,-14.41 2.66,0.22 3.28,0.48 4.51,1.92 1.23,1.43 1.49,2.18 1.49,4.62 0,2.45 -0.26,3.19 -1.44,4.57 -1.23,1.44 -1.9,1.76 -4.41,1.97 -3.59,0.32 -3.59,1.38 0,1.59 7.08,0.43 12.77,-7.39 9.49,-12.97 -1.75,-2.97 -3.49,-3.4 -13.85,-3.4 -6,0 -9.28,0.21 -9.28,0.53l0 0z"/>
   <path class="fil0" d="M374.41 161.04c0.16,3.88 0.98,4.84 1.44,1.76 0.51,-3.03 0.77,-3.19 4.92,-3.19l3.8 0 0 13.55c0,10.42 -0.16,13.66 -0.62,13.77 -0.36,0.16 -1.28,0.37 -2.05,0.53 -0.82,0.21 -1.44,0.59 -1.44,0.85 0,0.32 2.52,0.53 6.21,0.53 4.72,0 6.15,-0.15 6,-0.69 -0.16,-0.32 -0.93,-0.69 -1.8,-0.79 -1.28,-0.16 -1.64,-0.48 -1.9,-1.81 -0.41,-2.13 -0.41,-23.18 0,-24.77 0.31,-1.17 0.57,-1.23 4.21,-1.07l3.9 0.16 0.46 2.39c0.25,1.33 0.56,2.5 0.71,2.66 0.57,0.59 1.18,-1.59 1.18,-4.41l0 -3.03 -12.56 0 -12.61 0 0.15 3.56 0 0z"/>
   <path class="fil0" d="M76.01 173.27c0.15,0.9 2.87,0.96 48.6,0.96 45.74,0 48.46,-0.06 48.61,-0.91 0.15,-0.9 -2.41,-0.95 -48.61,-0.95 -46.19,0 -48.76,0.05 -48.6,0.9z"/>
   <path class="fil0" d="M407.64 173.43c0,1.06 0.2,1.06 48.6,0.96 42.76,-0.16 48.56,-0.27 48.56,-0.96 0,-0.69 -5.8,-0.8 -48.56,-0.96 -48.4,-0.1 -48.6,-0.1 -48.6,0.96z"/>
  </g>
  <g id="_649641896">
   <g>
    <g>
     <path class="fil1" d="M114.48 82.98l14.86 17.96 -1.85 1.86c-1.86,-1.24 -3.1,-1.86 -4.34,-1.86 -0.62,0 -1.24,0 -3.1,1.24 -4.95,4.34 -9.29,6.82 -13,9.29 -3.1,1.86 -6.82,3.1 -11.15,4.96 -8.68,2.48 -17.97,4.34 -27.88,4.34 -19.2,0 -35.31,-5.58 -47.7,-16.73 -13,-11.15 -19.2,-25.4 -19.2,-43.36 0,-13.63 4.34,-26.02 11.77,-35.93 13.01,-16.1 31.59,-24.16 56.99,-24.16 16.1,0 32.21,4.34 47.7,13.01 1.23,0.62 1.85,1.24 2.47,1.24 0.62,0 1.86,-1.24 3.72,-3.72l2.48 1.24 -12.39 21.06 -2.48 -1.24c0.62,-1.85 0.62,-3.09 0.62,-3.71 0,-2.48 -3.72,-5.58 -10.53,-8.68 -9.91,-4.95 -21.06,-7.43 -32.83,-7.43 -16.11,0 -28.5,4.34 -38.41,13.01 -9.91,8.67 -15.48,20.44 -15.48,34.69 0,14.25 5.57,26.02 16.1,35.31 9.91,9.29 22.3,13.62 37.17,13.62 14.25,0 27.26,-4.33 38.4,-12.38 4.96,-4.34 7.44,-6.82 7.44,-8.06 0,-1.24 -0.62,-2.47 -1.86,-4.33l2.48 -1.24 0 0z"/>
    </g>
   </g>
   <g>
    <g>
     <path class="fil1" d="M234.03 104.04l0 19.82 -2.48 0c-0.62,-1.86 -1.24,-3.71 -1.86,-4.33 -1.23,-0.62 -3.09,-1.24 -5.57,-1.24l-75.57 0 0 -1.86c2.47,-0.62 3.71,-1.24 4.33,-2.48 1.24,-1.24 1.24,-2.47 1.24,-4.95l0 -76.19c0,-1.86 0,-3.72 -1.24,-4.96 -0.62,-0.62 -1.86,-1.24 -4.33,-1.86l0 -2.48 23.54 0 0 2.48c-2.48,0.62 -3.72,1.24 -4.34,1.86 -1.24,1.24 -1.24,3.1 -1.24,4.96l0 76.19 57.61 0c2.48,0 4.34,0 5.58,-0.62 0.62,-1.24 1.23,-2.48 1.85,-4.34l2.48 0 0 0z"/>
    </g>
   </g>
   <g>
    <g>
     <path class="fil1" d="M364.11 71.83c0,9.29 -2.47,17.96 -8.05,26.02 -9.91,15.48 -26.64,22.92 -48.94,22.92 -16.72,0 -30.35,-4.34 -40.88,-13.63 -11.15,-9.29 -16.72,-21.06 -16.72,-35.93 0,-10.53 3.09,-19.2 8.05,-27.25 6.19,-8.68 14.25,-14.25 24.16,-18.59 7.43,-2.48 15.49,-3.71 25.4,-3.71 16.72,0 30.35,4.33 40.88,13 11.15,9.3 16.11,21.68 16.11,37.17l-0.01 0zm-12.38 -0.62l0 0c0,-11.15 -3.72,-19.82 -11.15,-27.26 -8.68,-8.05 -19.83,-12.38 -33.46,-13 -14.24,0 -25.39,4.33 -33.45,13 -7.43,7.44 -11.15,16.11 -11.15,27.26 0,10.53 3.72,19.2 11.15,26.64 8.06,8.67 19.21,13 33.45,13 13.63,0 24.78,-4.33 33.46,-13 7.43,-7.44 11.15,-16.11 11.15,-26.64z"/>
    </g>
   </g>
   <g>
    <g>
     <path class="fil1" d="M463.23 23.51l0 2.48c-2.48,0.62 -4.96,1.86 -6.82,4.34 -2.48,1.85 -5.57,5.57 -9.29,10.53l-24.78 35.92 0 32.22c0,2.47 0,3.71 0.62,4.95 0.62,1.24 2.48,1.86 4.34,2.48l0 1.86 -22.92 0 0 -1.86c2.47,-0.62 3.71,-1.24 4.33,-2.48 0.62,-1.24 1.24,-2.48 1.24,-4.95l0 -32.22 -29.11 -38.4c-3.72,-4.96 -6.2,-8.05 -8.06,-9.29 -1.85,-1.86 -3.71,-2.48 -6.19,-3.1l0 -2.48 27.25 0 0 2.48c-2.47,0 -3.71,1.24 -3.71,3.1 0,1.24 0.62,3.09 1.86,4.95l25.39 32.83 22.92 -32.21c1.86,-2.48 2.48,-4.33 2.48,-5.57 0,-1.86 -1.24,-3.1 -3.71,-3.1l0 -2.48 24.15 0 0.01 0z"/>
    </g>
   </g>
   <g>
    <g>
     <path class="fil1" d="M573.49 47.05c3.71,7.44 6.19,15.49 6.19,24.16 0,9.91 -3.09,19.2 -8.05,27.26 -4.34,7.43 -9.91,12.39 -16.73,15.48 -6.81,3.1 -16.1,4.34 -28.49,4.34l-47.7 0 0 -1.86c1.86,-0.62 3.72,-1.24 4.34,-2.48 0.62,-1.24 0.62,-2.47 0.62,-4.95l0 -76.19c0,-1.86 0,-3.72 -0.62,-4.96 -0.62,-0.62 -2.48,-1.24 -4.34,-1.86l0 -2.48 47.7 0c13.01,0 22.3,1.24 29.11,4.34 7.44,3.72 13.63,9.91 17.97,19.2zm-6.82 24.16l0 0c0,-11.77 -3.09,-21.06 -8.67,-27.88 -3.72,-3.71 -7.43,-6.81 -12.39,-8.05 -4.95,-1.86 -11.15,-2.48 -19.82,-2.48l-29.73 0 0 76.2 29.73 0c11.15,0 19.82,-1.24 24.78,-4.34 5.57,-3.1 9.91,-8.67 13.01,-15.49 1.85,-5.57 3.09,-11.77 3.09,-17.96z"/>
    </g>
   </g>
  </g>
 </g>
</svg>
