<?xml version="1.0" encoding="utf-8"?>
<!-- Generator: Adobe Illustrator 19.0.1, SVG Export Plug-In . SVG Version: 6.00 Build 0)  -->
<svg version="1.1" id="Слой_1" xmlns="http://www.w3.org/2000/svg" xmlns:xlink="http://www.w3.org/1999/xlink" x="0px" y="0px"
	 viewBox="0 0 136.8 58" style="enable-background:new 0 0 136.8 58;" xml:space="preserve">
<style type="text/css">
	.st0{fill-rule:evenodd;clip-rule:evenodd;fill:#494949;}
</style>
<g>
	<path class="st0" d="M41.8,51.4v3.2h0.4v-3.2H41.8L41.8,51.4z M43.8,54.6v-2.5l2.5,2.6v-3.3H46v2.5l-2.5-2.6v3.3H43.8L43.8,54.6z
		 M49.2,51.7v-0.3h-1.9v0.3H48v2.9h0.4v-2.9H49.2L49.2,51.7z M51.8,51.4h-1.7v3.2h1.7v-0.3h-1.3V53h1.3v-0.3h-1.3v-0.9h1.3V51.4
		L51.8,51.4z M52.9,51.4v3.2h0.4v-1.4h0.1l1,1.4h0.4l-1-1.4c0.5,0,0.8-0.4,0.8-0.9c0-0.3-0.2-0.6-0.4-0.7c-0.2-0.2-0.6-0.2-0.8-0.2
		H52.9L52.9,51.4z M53.2,51.7h0.2c0.2,0,0.3,0,0.5,0.1c0.2,0.1,0.3,0.3,0.3,0.5c0,0.4-0.3,0.6-0.7,0.6h-0.2V51.7L53.2,51.7z
		 M56.1,54.6v-2.5l2.5,2.6v-3.3h-0.4v2.5l-2.5-2.6v3.3H56.1L56.1,54.6z M62,54.6h0.4l-1.4-3.4l-1.5,3.4h0.4l0.4-0.9h1.4L62,54.6
		L62,54.6z M60.4,53.4l0.5-1.3l0.5,1.3H60.4L60.4,53.4z M64.7,51.7v-0.3h-1.9v0.3h0.8v2.9h0.4v-2.9H64.7L64.7,51.7z M65.6,51.4v3.2
		h0.4v-3.2H65.6L65.6,51.4z M68.7,54.7c0.9,0,1.7-0.7,1.7-1.7c0-1-0.7-1.7-1.7-1.7C67.8,51.3,67,52,67,53
		C67,53.9,67.8,54.7,68.7,54.7L68.7,54.7z M68.7,51.7c0.7,0,1.3,0.6,1.3,1.3c0,0.7-0.6,1.3-1.3,1.3c-0.7,0-1.3-0.6-1.3-1.3
		C67.4,52.3,68,51.7,68.7,51.7L68.7,51.7z M71.8,54.6v-2.5l2.5,2.6v-3.3H74v2.5l-2.5-2.6v3.3H71.8L71.8,54.6z M77.8,54.6h0.4
		l-1.4-3.4l-1.5,3.4h0.4l0.4-0.9h1.4L77.8,54.6L77.8,54.6z M76.2,53.4l0.5-1.3l0.5,1.3H76.2L76.2,53.4z M79,51.4v3.2h1.2v-0.3h-0.9
		v-2.9H79L79,51.4z M83.5,51.4v3.2h1.2v-0.3h-0.9v-2.9H83.5L83.5,51.4z M85.6,51.4v3.2H86v-3.2H85.6L85.6,51.4z M88.9,53.3h1
		c0,0.2-0.1,0.4-0.1,0.5c-0.2,0.3-0.6,0.5-1,0.5c-0.6,0-1.3-0.4-1.3-1.3c0-0.7,0.5-1.3,1.3-1.3c0.4,0,0.6,0.1,0.8,0.3
		c0.1,0.1,0.2,0.2,0.3,0.3l0.3-0.2c-0.1-0.1-0.2-0.3-0.4-0.4c-0.3-0.2-0.7-0.3-1-0.3c-1,0-1.7,0.7-1.7,1.7c0,0.9,0.7,1.7,1.7,1.7
		c0.7,0,1.1-0.4,1.2-0.6c0.2-0.3,0.3-0.7,0.3-1V53h-1.3V53.3L88.9,53.3z M91.7,51.4h-0.4v3.2h0.4V53h1.6v1.6h0.4v-3.2h-0.4v1.3h-1.6
		V51.4L91.7,51.4z M96.6,51.7v-0.3h-1.9v0.3h0.8v2.9h0.4v-2.9H96.6L96.6,51.7z M97.5,51.4v3.2h0.4v-3.2H97.5L97.5,51.4z M99.5,54.6
		v-2.5l2.5,2.6v-3.3h-0.4v2.5l-2.5-2.6v3.3H99.5L99.5,54.6z M104.9,53.3h1c0,0.2-0.1,0.4-0.1,0.5c-0.2,0.3-0.6,0.5-1,0.5
		c-0.6,0-1.3-0.4-1.3-1.3c0-0.7,0.5-1.3,1.3-1.3c0.4,0,0.6,0.1,0.8,0.3c0.1,0.1,0.2,0.2,0.3,0.3l0.3-0.2c-0.1-0.1-0.2-0.3-0.4-0.4
		c-0.3-0.2-0.7-0.3-1-0.3c-1,0-1.7,0.7-1.7,1.7c0,0.9,0.7,1.7,1.7,1.7c0.7,0,1.1-0.4,1.2-0.6c0.2-0.3,0.3-0.7,0.3-1V53h-1.3V53.3
		L104.9,53.3z M112,51.7c-0.4-0.3-0.8-0.3-0.9-0.3c-1,0-1.7,0.7-1.7,1.7c0,0.9,0.7,1.6,1.7,1.6c0.2,0,0.6-0.1,1-0.3v-0.4
		c-0.1,0.1-0.2,0.2-0.4,0.3c-0.2,0.1-0.4,0.1-0.6,0.1c-0.6,0-1.3-0.4-1.3-1.3c0-0.7,0.5-1.3,1.3-1.3c0.2,0,0.4,0,0.6,0.1
		c0.2,0.1,0.3,0.2,0.4,0.3V51.7L112,51.7z M114.6,54.7c0.9,0,1.7-0.7,1.7-1.7c0-1-0.7-1.7-1.7-1.7c-0.9,0-1.7,0.7-1.7,1.7
		C113,53.9,113.7,54.7,114.6,54.7L114.6,54.7z M114.6,51.7c0.7,0,1.3,0.6,1.3,1.3c0,0.7-0.6,1.3-1.3,1.3c-0.7,0-1.3-0.6-1.3-1.3
		C113.3,52.3,113.9,51.7,114.6,51.7L114.6,51.7z M117.7,54.6l0.3-2.2l1.1,2.4l1.1-2.4l0.3,2.2h0.4l-0.5-3.4l-1.3,2.7l-1.2-2.7
		l-0.5,3.4H117.7L117.7,54.6z M122,51.4v3.2h0.4v-1.4h0.3c0.7,0,1-0.4,1-0.9c0-0.2-0.1-0.5-0.3-0.7c-0.2-0.2-0.5-0.2-0.8-0.2H122
		L122,51.4z M122.4,51.7h0.3c0.2,0,0.7,0,0.7,0.6c0,0.4-0.3,0.6-0.7,0.6h-0.3V51.7L122.4,51.7z M126.5,54.6h0.4l-1.4-3.4l-1.5,3.4
		h0.4l0.4-0.9h1.4L126.5,54.6L126.5,54.6z M124.9,53.4l0.5-1.3l0.5,1.3H124.9L124.9,53.4z M128.2,54.6v-2.5l2.5,2.6v-3.3h-0.4v2.5
		l-2.5-2.6v3.3H128.2L128.2,54.6z M132.7,54.6h0.4v-1.4l1.1-1.8h-0.4l-0.8,1.4l-0.8-1.4h-0.4l1.1,1.8V54.6z"/>
	<polygon class="st0" points="41.8,47.6 41.8,34.7 49,34.7 49,36.5 43.9,36.5 43.9,39.7 49,39.7 49,41.6 43.9,41.6 43.9,47.6 	"/>
	<path class="st0" d="M53.4,42.5H57l-1.3-3c-0.1-0.2-0.2-0.4-0.2-0.6c-0.1-0.2-0.2-0.5-0.2-0.8c-0.1,0.3-0.1,0.5-0.2,0.8
		c-0.1,0.2-0.2,0.5-0.2,0.7L53.4,42.5L53.4,42.5z M59.2,47.6l-1.5-3.3h-5.1l-1.5,3.3h-2.2l6.3-13.5l6.3,13.5H59.2z"/>
	<path class="st0" d="M66.4,48.1l-5.8-13.5h2.2l2.9,6.9c0.2,0.4,0.3,0.8,0.4,1.1c0.1,0.3,0.2,0.7,0.3,1c0.1-0.3,0.2-0.7,0.3-1
		c0.1-0.3,0.3-0.7,0.4-1.1l4.1-9.8h2.2L66.4,48.1z"/>
	<path class="st0" d="M84.3,41.2c0-0.7-0.1-1.3-0.4-1.9c-0.2-0.6-0.6-1.1-1-1.6c-0.4-0.5-0.9-0.8-1.5-1c-0.6-0.2-1.2-0.4-1.8-0.4
		c-0.6,0-1.2,0.1-1.8,0.4c-0.6,0.2-1.1,0.6-1.5,1.1c-0.4,0.5-0.8,1-1,1.6c-0.2,0.6-0.4,1.2-0.4,1.9c0,0.7,0.1,1.3,0.4,1.9
		c0.2,0.6,0.6,1.1,1,1.6c0.4,0.5,1,0.8,1.5,1.1c0.6,0.2,1.2,0.4,1.8,0.4c0.6,0,1.2-0.1,1.8-0.4c0.6-0.2,1.1-0.6,1.5-1.1
		c0.4-0.5,0.8-1,1-1.6C84.2,42.5,84.3,41.8,84.3,41.2L84.3,41.2z M86.5,41.2c0,0.9-0.2,1.8-0.5,2.6c-0.3,0.8-0.8,1.6-1.5,2.2
		c-0.7,0.6-1.4,1.1-2.3,1.5c-0.8,0.3-1.7,0.5-2.6,0.5c-0.9,0-1.8-0.2-2.7-0.5c-0.8-0.3-1.6-0.8-2.2-1.5c-0.7-0.6-1.2-1.4-1.5-2.2
		c-0.3-0.8-0.5-1.7-0.5-2.6c0-0.9,0.2-1.8,0.5-2.6c0.3-0.8,0.8-1.6,1.5-2.2c0.7-0.6,1.4-1.1,2.2-1.5c0.8-0.3,1.7-0.5,2.7-0.5
		c0.9,0,1.8,0.2,2.6,0.5c0.8,0.3,1.6,0.8,2.2,1.5c0.7,0.7,1.2,1.4,1.5,2.2C86.3,39.4,86.5,40.3,86.5,41.2z"/>
	<path class="st0" d="M88.8,34.7h2.1v7.9c0,1.2,0.3,2,0.8,2.6c0.5,0.6,1.3,0.9,2.4,0.9c1.1,0,1.9-0.3,2.4-0.9
		c0.5-0.6,0.8-1.5,0.8-2.6v-7.9h2.1v8.1c0,1.8-0.4,3.1-1.3,3.9c-0.9,0.9-2.2,1.3-4,1.3c-1.8,0-3.1-0.4-4-1.3
		c-0.9-0.9-1.3-2.2-1.3-3.9V34.7z"/>
	<path class="st0" d="M104.4,40.2h0.4c1.1,0,1.9-0.1,2.2-0.4c0.4-0.3,0.5-0.7,0.5-1.4c0-0.7-0.2-1.2-0.6-1.5
		c-0.4-0.3-1.1-0.4-2.2-0.4h-0.4V40.2L104.4,40.2z M104.3,41.8v5.8h-2V34.7h2.9c0.9,0,1.5,0.1,2,0.2c0.5,0.1,0.9,0.3,1.2,0.6
		c0.4,0.3,0.7,0.7,0.9,1.2c0.2,0.5,0.3,1,0.3,1.6c0,1-0.2,1.8-0.8,2.4c-0.5,0.6-1.2,0.9-2.2,1.1l4.5,5.9h-2.4l-4.3-5.8H104.3z"/>
	<rect x="112.5" y="34.7" class="st0" width="2.1" height="12.9"/>
	<polygon class="st0" points="121.8,36.5 121.8,47.6 119.7,47.6 119.7,36.5 116.3,36.5 116.3,34.7 125.2,34.7 125.2,36.5 	"/>
	<polygon class="st0" points="126.9,47.6 126.9,34.7 134.1,34.7 134.1,36.5 129,36.5 129,39.7 134.1,39.7 134.1,41.6 129,41.6 
		129,45.8 134.1,45.8 134.1,47.6 	"/>
	<path class="st0" d="M32,17.5c0.3-0.8,0.6-3.1-0.5-2.6c0-0.1,0.6-0.7,0.5-1c-0.1-0.5-1.4,0.4-1.7,0.6c0-0.1,1.2-1,1.2-1.3
		c0.1-0.4-0.3-0.4-0.6-0.2c-0.8,0.4-0.5,0.3-0.9,0.5c0-0.1,1.3-0.9,1.3-1.1c-0.5-0.5-1.8,0.3-2.2-0.1c0.3,0.1,2.7-0.5,2.5-1
		c-0.1-0.3-2.5,0.4-2.5,0.2c2.1-0.3,2.9-1.7,3-2c-1,0.4-4.4,1.5-5.1,0.7c1,0.4,4-0.8,4.5-1.7c-1.2,0.2-2.1-0.3-2.8,1
		c-0.3-1.2,5.5-2.8-0.4-1.4c0.6-0.6,3.4-1.8,4.8-2.3c1.5-0.5,2.4-2.6,4.2-2.4c-0.1-0.7,0-1.4,0.7-1.7c0,0.5,0.3,0.6,0.5,1.2
		c0.2,0,0.5-0.3,0.5-0.1c0.2-0.3,0.3-0.6,0.1-1.1c0.9-0.2,1.1,1.3,1.2,1.8c0.3,0.6,1.5,0.5,1.9,1.1c1,1.5,2.3,2.8,3.7,3.8
		c0.3,1.3-0.1,2.7-1.7,2.5c-1.2-1.7-3.9,0-5-1.8c0.2,1.6,1.2,3,2.4,4c1.5,1.2,2.9,1.7,3.9,4.1c3.3-0.6,4.2-4.2,6.7-2.8
		c0.5,1.8,2.1,2.4,3,3.7c-0.3,1.3,0.1,2.9-0.4,4.1c-0.8-0.2-1.4-0.9-1.8-2c0.2-0.3,0.8-0.3,0.9-0.7c-1.1-0.7-1.7-2.4-2.8-3.1
		c-2.2,0.2-3.5,2.1-4.8,3.2c0.2,0.7,0.2,1.4,0.2,2c1.7-0.1,3,0.2,4.8,0c1.6-0.2,2.1,3.2,2.4,4.9c0.1,0.8,0,1.5-0.3,1.8
		c-0.3,0.2-0.6,0.1-1.1,0.2c-1.1,0.1-2,0.7-2.8,0.1c-0.5-0.3-1-1.2-1.5-1.6c0.8-0.7,1.9-0.4,2.6-0.4c0.3,0.3,0.4,1,0.9,0.9
		c0.3-0.5,0.1-0.8,0.5-1.2c0.1-0.3-0.4-1.9-1.1-2.5c-1.8-0.2-3.6,1.2-5.4,1.6c-0.3,0.1-0.8,0-1.1,0.1c-1.2,0.5-2.1,2.3-3.6,3.2
		c-2.7,1.6-6.3,2.6-9.2,4.3c-1.4,0.9-1.5,1.9-2.1,3.2c-1.1,2.6-3.4,4.5-5.1,6.6c0.2,1,1,1.6,1.2,2.4c0.1,0.5-0.2,0.9-0.3,1.5
		c-0.2,1.4-0.1,2.5-1.7,3.3c-0.5-1.2-0.7-2.3-0.5-3.2c0.5-0.2,0.9,0.2,1.2-0.3c-0.1-0.4-0.7-1.2-0.9-2c-2.2,2.9-2.6,7.7-5.4,10.4
		c-0.9-0.7-0.7-2.3-0.6-3.1c0.7-0.3,1.3-0.5,1.7-0.9c0.1-0.3-0.3-0.6-0.2-0.9c1.3-1.9,1.2-4.5,1.7-6.8c2.1-0.5,0.8-2.8-0.1-4
		c0.3-0.5,0.7-0.7,1.1-0.8c-0.3-2.5-1.2-5.3-0.6-7.4c-2.7,1-2.6,3.6-4.3,5.2c-0.7,0.7-1.8,1-2.6,1.9c-0.2,0.3-0.4,0.8-0.7,1.1
		c-0.1-0.7,0.5-1.2,1-1.6c-0.9,0-1.6,1.3-1.7,1.7c-0.4-0.5,0.3-1.3,0.8-1.9c0.5-0.7,1.2-1.3,1.5-1.9c-3.1,2.2-8.6,3.4-8.3,7.1
		c-0.8-0.2-0.2-1.5,0-2c-0.1-0.1-0.4,0.2-0.5-0.2c0.3-0.8,0.8-1.6,1.5-2.3c-1.6,0.4-1.9,2.1-2.5,3.2c-0.4-1.2,0.5-1.7,0.2-2.8
		c0.3-0.6,0.6-1.1,0.9-1.6c-0.1-0.3-0.2,0.4-0.3,0c-0.1-1.3,1.1-2,1.8-3C6.6,34,5.7,35.4,5,36.4c-0.1-1.1,1-1.8,1.5-2.6
		c-0.8,0.2-1.9,1-2.1,1.7c-0.3-0.7,0.5-1.5,1.2-2c-0.1-0.2-0.4,0.1-0.5,0.1c0.3-0.6,1.4-0.9,1.9-1.4c-1.6,0.1-3.2,1.4-4,2.4
		c0.6-2.4,3.7-2.7,6.3-3.5c2.5-0.7,4.4-2.4,6.3-2.8c1.4-0.3,2.5-0.1,3.4,0.2c0.8,0.3,1.4,1,2.5,0.9c0.7-0.4,4.4-4,4.4-4
		S31.7,18.7,32,17.5z"/>
	<path class="st0" d="M30.8,54.7h-24C6.8,54.4,30.7,54.4,30.8,54.7z"/>
</g>
</svg>
