<svg width="129" height="55" fill="none" xmlns="http://www.w3.org/2000/svg"><path d="M23.34.85C17.351-.705 12.558-.12 9.114 2.536 6.077 4.9 4.254 8.997 4.254 13.497v2.274H0v1.868h4.253l-.022 9.048v19.378h6.235V17.617h6.144v-1.869h-6.145v-1.17c0-6.347.338-11.186 3.692-12.423 5.739-2.116 9.722 5.514 9.722 5.514V1.007l-.54-.158zm104.542 44.337c-.54-2.79-.788-6.167-.72-10.6l.045-6.572c.022-4.3-.968-7.405-3.016-9.476-2.026-2.025-4.997-3.016-9.115-3.016-5.694 0-11.659 2.994-12.176 9.7l-.068.789h6.46l.09-.653c.315-2.453.832-7.968 5.784-7.968 5.784 0 5.716 6.617 5.716 9.723v1.373c-7.427-1.17-13.504-.27-16.767 2.52-1.958 1.689-2.926 3.985-2.858 6.843.135 5.492 4.276 8.89 10.848 8.89 2.971 0 6.752-1.08 9.138-3.398.067.787.157 1.462.27 2.093l.09.63h6.459l-.18-.878zm-6.977-14.72c0 1.059-.023 4.367 0 5.222.112 4.029.067 4.862-1.44 6.235-1.418 1.305-3.782 1.71-5.695 1.53-1.147-.112-5.356-1.035-5.356-5.762 0-1.868.517-3.803 2.003-5.154 1.44-1.305 3.713-2.385 6.729-2.385 1.148.022 2.409.112 3.759.315zM41.502 15.546c-.518-.045-1.733-.068-2.633-.045-2.926.09-6.55 2.138-7.427 6.144 0-3.984-2.431-5.874-4.727-5.874h-5.244v1.845l1.463.023h.158c.112 0 .202 0 .315.022-.09 0-.203-.022-.293-.022 1.215.045 2.228 2.498 2.228 3.713v24.69h6.325V28.487c0-7.067 3.015-8.193 5.941-8.012 2.814.18 4.547 1.755 4.547 1.755v-6.617l-.653-.067zM67.16 36.95l-.18.495c-1.419 4.074-3.827 7.382-7.36 7.36-5.02-.046-7.36-6.055-8.395-11.299 9.273 1.058 15.822-1.125 18.275-4.119 2.093-2.543 2.543-5.401 1.283-8.034-1.688-3.511-6.19-5.83-11.208-5.83h-.293c-4.073.068-7.855 1.576-10.6 4.232-2.949 2.835-4.524 6.707-4.57 11.185C44 39.92 50.37 46.402 59.576 46.672h.54c8.958 0 12.536-6.616 13.414-8.687l.45-1.035h-6.82zm-3.151-10.443c-1.576 2.453-4.974 5.109-12.762 5.109-.022-.383-.022-.766-.022-1.148.067-5.604 2.453-13.076 8.215-13.076 3.106 0 4.186.855 5.041 2.385 1.306 2.25.675 4.952-.472 6.73zM93.38 15.748s2.768 4.299 1.215 9.498c-1.08 3.669-3.534 11.208-3.534 11.208L80.393 15.748h-6.932L88.023 44.85c-1.755 9.52-12.131 3.354-12.131 3.354V55h2.723c6.437 0 8.823-1.846 11.051-8.553l10.511-30.699H93.38z" fill="#000"/></svg>