<svg width="133" height="67" fill="none" xmlns="http://www.w3.org/2000/svg"><path d="M0 56.728h133v-2.76H61.76V25.911h15.747l-.612-1.533H44.028l-.612 1.533h16.205v28.057H0v2.76zM54.27 3.986h-2.599l-7.338 19.625h3.67L54.27 3.986zm-1.376 19.625H76.59L69.252 3.986H55.799l-2.905 19.625zM68.946 3.22l-.764-1.993h-7.033V0h-1.07v1.227h-7.185l-.917 1.993h16.969z" fill="#6BB431"/><path d="M12.994 45.23c0-1.84-1.223-2.76-3.822-2.76H3.67v5.672h5.503c2.6 0 3.822-.92 3.822-2.913zM3.67 39.862h4.739c1.223 0 1.987-.306 2.599-.766.611-.46.917-1.074.917-1.994 0-.92-.306-1.533-.917-1.993-.612-.46-1.529-.766-2.599-.766h-4.74v5.52zm12.077 2.607c.611.766.917 1.84.917 3.066 0 1.686-.611 3.066-1.834 3.986-1.223.92-3.058 1.38-5.504 1.38H.153V31.584h8.56c2.141 0 3.823.46 5.046 1.226 1.223.92 1.834 2.147 1.834 3.68 0 1.073-.306 1.84-.764 2.607-.306.766-1.07 1.38-1.988 1.686 1.223.307 2.14.92 2.905 1.687zm11.923 5.519c.612-.46 1.07-.92 1.376-1.687v-1.686H25.53c-1.987 0-2.905.613-2.905 1.993 0 .613.306 1.073.765 1.533.458.307 1.223.614 2.14.614.764-.154 1.529-.46 2.14-.767zm3.21-10.426c1.224 1.074 1.682 2.607 1.682 4.753v8.586h-3.21v-1.84c-.459.614-1.07 1.073-1.835 1.533-.764.307-1.681.46-2.751.46-1.07 0-2.14-.153-2.905-.613-.764-.307-1.529-.92-1.987-1.533-.459-.613-.612-1.38-.612-2.3 0-1.38.459-2.453 1.529-3.22.917-.766 2.599-1.226 4.586-1.226h3.67v-.153c0-1.074-.307-1.84-.918-2.453-.612-.614-1.529-.767-2.752-.767-.764 0-1.681.153-2.446.46-.764.306-1.529.613-1.987 1.073l-1.376-2.453c.764-.613 1.682-1.073 2.752-1.38 1.07-.306 2.293-.46 3.516-.46 2.14-.153 3.822.46 5.045 1.533zm20.485 13.34V41.09l-5.044 8.279h-1.529l-4.892-8.28v9.813h-3.057V36.184h3.668l5.198 9.199 5.504-9.2h3.21v14.72h-3.058zm20.027-1.074c-1.529-.92-2.752-1.993-3.669-3.527-.917-1.533-1.376-3.22-1.376-5.059 0-1.84.459-3.68 1.376-5.06.917-1.533 2.14-2.76 3.669-3.526 1.529-.92 3.363-1.226 5.35-1.226 1.53 0 3.058.306 4.281.766 1.376.614 2.446 1.38 3.363 2.453l-2.293 2.147c-1.376-1.533-3.057-2.3-5.198-2.3-1.375 0-2.445.307-3.516.92a6.28 6.28 0 00-2.446 2.453c-.611 1.073-.917 2.147-.917 3.526 0 1.38.306 2.453.917 3.527a6.28 6.28 0 002.446 2.453c1.07.613 2.293.92 3.516.92 1.988 0 3.822-.767 5.198-2.3l2.293 2.146c-.917 1.074-1.987 1.84-3.363 2.453-1.376.614-2.752.767-4.28.767-1.988-.153-3.822-.613-5.351-1.533zm25.988-3.372c0-.613-.152-1.073-.611-1.38-.459-.307-1.07-.46-2.14-.46H90.5v3.833h3.975c1.987 0 2.904-.767 2.904-1.993zm-6.726-4.14h3.669c1.834 0 2.752-.613 2.752-1.84 0-1.226-.918-1.84-2.752-1.84h-3.669v3.68zm10.09 4.447c0 1.38-.459 2.3-1.53 3.066-.916.767-2.445 1.073-4.432 1.073H87.29V36.184h7.185c1.834 0 3.21.306 4.28.92 1.07.613 1.529 1.533 1.529 2.76 0 .766-.153 1.38-.611 1.992-.46.614-.918.92-1.682 1.227 1.834.613 2.752 1.84 2.752 3.68zm7.185-7.054c-.765.613-1.223 1.533-1.376 2.606h8.408c-.153-1.073-.612-1.993-1.376-2.606-.764-.613-1.682-.92-2.752-.92-1.223 0-2.14.307-2.904.92zm10.242 4.906h-11.618c.153 1.073.764 1.993 1.528 2.606.918.614 1.988.92 3.211.92 1.681 0 2.904-.46 3.974-1.533l1.835 2.147c-.612.766-1.529 1.38-2.446 1.84-1.07.46-2.14.613-3.363.613-1.682 0-3.058-.307-4.281-.92-1.223-.613-2.14-1.533-2.904-2.76-.612-1.226-1.07-2.453-1.07-3.986 0-1.38.305-2.76.917-3.833.611-1.227 1.529-1.993 2.752-2.76 1.223-.613 2.446-.92 3.974-.92 1.376 0 2.752.307 3.822.92a6.492 6.492 0 012.599 2.76c.611 1.226.917 2.453.917 3.986.153.154.153.46.153.92zM133 39.097h-5.045v11.805h-3.516V39.097h-5.198v-2.913H133v2.913zM4.586 62.095H1.682V67H.917v-5.673h3.67v.767zm3.211-.767h.764v4.293l3.363-4.293h.765v5.673h-.765v-4.293l-3.363 4.293h-.764v-5.673zm13.758 0v5.673h-.764v-4.906h-3.364V67h-.764v-5.673h4.892zm8.102 4.906v.767H25.53v-5.673h3.974v.767h-3.21v1.686H29.2v.613h-2.905v1.84h3.363zm6.88-1.993c.306-.153.458-.46.458-.92s-.152-.766-.458-.92c-.306-.153-.612-.306-1.223-.306h-1.376v2.453h1.376c.611 0 .917-.154 1.223-.307zm.611-2.3c.459.307.612.767.612 1.38 0 .614-.153 1.073-.612 1.38-.458.307-1.07.46-1.681.46H34.09v1.687h-.765v-5.52h2.294c.458 0 1.07.153 1.528.613zM46.474 67v-4.139l-2.14 3.373h-.306l-2.14-3.373v4.14h-.765v-5.673h.764l2.294 3.986 2.446-3.986h.611v5.673h-.764zm8.102-2.146l-1.223-2.76-1.223 2.76h2.446zm.306.767h-3.058l-.611 1.38h-.765l2.6-5.673h.764l2.598 5.673h-.917l-.611-1.38zm8.102-1.38c.306-.153.458-.46.458-.92s-.152-.766-.458-.92c-.306-.153-.612-.306-1.223-.306h-1.376v2.453h1.376c.458 0 .917-.154 1.223-.307zm.611-2.3c.459.307.612.767.612 1.38 0 .614-.153 1.073-.612 1.38-.458.307-1.07.46-1.681.46h-1.376v1.687h-.917v-5.52h2.293c.611 0 1.223.153 1.681.613zm5.962 2.607h-1.223V67h-.764v-5.673h.764v2.453h1.223l1.835-2.453h.917l-2.14 2.76L72.309 67h-.917l-1.835-2.453zm10.09 1.686v.767H75.52v-5.673h4.128v.767h-3.21v1.686h2.752v.613h-2.752v1.84h3.21zm7.491-4.139h-1.987V67h-.765v-4.906H82.4v-.767h4.739v.767zm10.701 4.598a3.579 3.579 0 01-1.07-1.073 2.596 2.596 0 01-.459-1.533c0-.613.153-1.073.459-1.533.306-.46.611-.767 1.07-1.074.459-.306.917-.306 1.529-.306.458 0 .917 0 1.223.153.306.154.611.307.917.613l-.459.46c-.458-.46-.917-.613-1.528-.613-.459 0-.765.153-1.223.307-.306.153-.612.46-.765.766-.153.307-.305.767-.305 1.074 0 .46.152.766.305 1.073.153.306.459.613.765.766a2.86 2.86 0 001.223.307c.611 0 1.223-.153 1.528-.613l.459.46c-.306.306-.611.46-.917.613-.306.153-.765.153-1.223.153-.612.307-1.07.154-1.529 0zm11.007-1.379c0-.306-.153-.613-.306-.766-.153-.154-.611-.154-.917-.154h-1.834v1.84h1.834c.764.154 1.223-.153 1.223-.92zm-3.21-1.533h1.528c.459 0 .765-.153.918-.306.153-.154.305-.307.305-.614 0-.306-.152-.46-.305-.613-.153-.153-.459-.307-.918-.307h-1.528v1.84zm3.669.767c.153.306.305.46.305.92s-.152.92-.611 1.073c-.306.307-.917.46-1.529.46h-2.599v-5.673h2.446c.612 0 1.07.153 1.529.307.306.306.459.613.459 1.073 0 .307-.153.613-.306.767a2.113 2.113 0 01-.612.46c.459.153.765.306.918.613zm7.949 1.686v.767h-4.128v-5.673h4.128v.767h-3.21v1.686h2.751v.613h-2.751v1.84h3.21zm7.491-4.139h-1.987V67h-.765v-4.906h-1.987v-.767h4.739v.767zm6.573 2.759l-1.223-2.76-1.223 2.76h2.446zm.306.767h-3.057l-.612 1.38h-.764l2.599-5.673h.764l2.599 5.673h-.918l-.611-1.38z" fill="#001A34"/></svg>