<svg xmlns="http://www.w3.org/2000/svg" width="613" height="102" viewBox="0 0 613 102" fill="none"><path d="M196.899 68.0469H188.067L176.643 33.5353H184.323L192.291 60.0789L199.059 33.5353H207.603L215.379 60.0789L222.771 33.5353H230.163L219.603 68.0469H210.675L203.379 42.3673L196.899 68.0469ZM278.767 33.5353V39.5353H266.863C264.271 39.5353 262.263 40.2151 260.839 41.575C259.415 42.935 258.703 44.9431 258.703 47.5989H278.767V53.5989H258.703C258.703 56.4789 259.231 58.5029 260.287 59.671C261.343 60.839 262.327 61.5269 263.239 61.735C264.151 61.943 265.359 62.0469 266.863 62.0469H278.767V68.0469H266.575C264.271 68.0469 262.311 67.847 260.695 67.447C259.079 67.0469 257.455 66.2388 255.823 65.0229C253.871 63.3588 252.487 61.3591 251.671 59.0229C250.855 56.6872 250.447 54.159 250.447 51.4389L250.543 49.3749C250.543 48.1269 250.671 46.911 250.927 45.7269C251.183 44.5431 251.503 43.4233 251.887 42.3673C252.271 41.3113 252.719 40.383 253.231 39.5833C253.743 38.7832 254.495 37.8871 255.487 36.8953C256.479 35.9032 257.679 35.1751 259.087 34.711C260.495 34.2473 261.815 33.9352 263.047 33.7753C264.279 33.615 265.519 33.5353 266.767 33.5353H278.767ZM311.58 68.0469H304.332V33.5353H322.14C323.035 33.5353 323.955 33.5833 324.899 33.6793C325.844 33.7753 326.9 33.9593 328.067 34.231C329.235 34.5032 330.331 35.143 331.355 36.151C332.38 37.159 333.131 38.3191 333.611 39.6313C334.027 41.0392 334.235 42.4792 334.235 43.9513C334.235 45.5829 333.995 47.0551 333.515 48.3669C332.971 49.7109 332.203 50.8232 331.211 51.703C330.22 52.583 328.924 53.2149 327.323 53.5989L335.819 68.0469H327.707L320.076 54.5589H311.58V68.0469ZM320.46 39.7273H311.58V48.4629H320.46C321.772 48.4629 322.868 48.3831 323.747 48.2229C324.627 48.063 325.403 47.6469 326.075 46.9749C326.651 46.3029 326.939 45.327 326.939 44.0473C326.939 42.1911 326.372 41.0071 325.235 40.4953C324.099 39.9832 322.507 39.7273 320.46 39.7273ZM374.536 68.0469H367V39.6313H355.96V33.6313H385.672V39.6313H374.536V68.0469ZM415.844 68.0469H408.404V33.5353H419.108L427.844 59.9829L436.628 33.5353H447.236V68.0469H440.084L440.66 41.2153L431.876 68.0469H424.148L415.076 40.9753L415.844 68.0469ZM476.545 68.0469H468.865L483.361 33.5353H491.041L505.776 68.0469H497.712L494.544 59.7909H479.521L476.545 68.0469ZM481.873 53.6949H492.193L486.961 40.4953L481.873 53.6949ZM534.653 68.0469H527.405V33.5353H545.213C546.109 33.5353 547.029 33.5833 547.973 33.6793C548.917 33.7753 549.973 33.9593 551.141 34.231C552.309 34.5032 553.405 35.143 554.429 36.151C555.453 37.159 556.205 38.3191 556.685 39.6313C557.101 41.0392 557.309 42.4792 557.309 43.9513C557.309 45.5829 557.069 47.0551 556.589 48.3669C556.045 49.7109 555.277 50.8232 554.285 51.703C553.293 52.583 551.997 53.2149 550.397 53.5989L558.893 68.0469H550.781L543.149 54.5589H534.653V68.0469ZM543.533 39.7273H534.653V48.4629H543.533C544.845 48.4629 545.941 48.3831 546.821 48.2229C547.701 48.063 548.477 47.6469 549.149 46.9749C549.725 46.3029 550.013 45.327 550.013 44.0473C550.013 42.1911 549.445 41.0071 548.309 40.4953C547.173 39.9832 545.581 39.7273 543.533 39.7273ZM589.833 68.0469H582.585V33.5353H589.833V50.1429L603.417 33.5353H612.105L598.233 50.4309L612.201 68.0469H602.937L589.833 50.9109V68.0469Z" fill="#7B7979"></path><path d="M246.854 101.454H241.559V89.9507H246.806C248.001 89.9507 248.977 90.14 249.734 90.5188C250.492 90.8975 251.03 91.3908 251.35 91.9989C251.67 92.6066 251.894 93.1535 252.022 93.6389C252.15 94.1241 252.214 94.6548 252.214 95.2308V95.9344C252.214 97.9504 251.793 99.3077 250.953 100.007C250.113 100.705 249.414 101.121 248.857 101.255C248.297 101.388 247.631 101.454 246.854 101.454ZM246.774 91.9509H243.975V99.4544H246.774C247.265 99.4544 247.665 99.4199 247.974 99.3505C248.284 99.2813 248.572 99.1078 248.838 98.8308C249.158 98.468 249.364 98.0228 249.454 97.4948C249.545 96.9668 249.59 96.3722 249.59 95.7107C249.59 95.0709 249.545 94.484 249.454 93.9506C249.364 93.4173 249.18 92.9906 248.902 92.6709C248.625 92.3507 248.366 92.1614 248.126 92.1029C247.886 92.0442 247.66 92.0042 247.446 91.9826C247.233 91.9614 247.009 91.9509 246.774 91.9509ZM268.975 89.9507V91.9509H265.008C264.144 91.9509 263.474 92.1773 263 92.6309C262.525 93.084 262.287 93.7533 262.287 94.6389H268.975V96.6386H262.287C262.287 97.5986 262.464 98.2733 262.815 98.6626C263.167 99.0518 263.495 99.2813 263.799 99.3505C264.104 99.4199 264.506 99.4544 265.008 99.4544H268.975V101.454H264.912C264.144 101.454 263.49 101.388 262.952 101.255C262.413 101.121 261.871 100.852 261.327 100.446C260.677 99.8921 260.216 99.2253 259.943 98.4467C259.672 97.6678 259.536 96.8252 259.536 95.9186L259.568 95.2308C259.568 94.8146 259.61 94.4094 259.695 94.0149C259.781 93.6199 259.887 93.2469 260.016 92.8947C260.144 92.5428 260.293 92.2336 260.463 91.9668C260.634 91.7004 260.885 91.4013 261.216 91.071C261.546 90.7403 261.946 90.4977 262.416 90.3427C262.885 90.1881 263.325 90.0842 263.735 90.0309C264.146 89.9776 264.559 89.9507 264.975 89.9507H268.975ZM277.465 96.9266V89.9507H279.88V96.8628C279.88 97.076 279.891 97.2921 279.913 97.5106C279.934 97.7294 279.974 97.9799 280.032 98.2627C280.091 98.5454 280.214 98.8013 280.401 99.0307C280.587 99.2597 280.851 99.4358 281.192 99.5587C281.534 99.6811 281.96 99.7423 282.472 99.7423C283.155 99.7423 283.68 99.6358 284.049 99.4226C284.416 99.2092 284.672 98.9026 284.816 98.5027C284.96 98.1025 285.032 97.556 285.032 96.8628V89.9507H287.432V96.9266C287.432 97.2253 287.422 97.5238 287.4 97.8227C287.379 98.1212 287.352 98.4146 287.32 98.7026C287.235 99.1826 286.925 99.7825 286.397 100.502C285.867 101.222 284.555 101.583 282.456 101.583C280.326 101.583 279.014 101.249 278.515 100.583C278.019 99.9158 277.734 99.4574 277.665 99.2065C277.595 98.9558 277.545 98.756 277.513 98.6066C277.48 98.4573 277.465 98.2864 277.465 98.0944C277.465 97.9452 277.465 97.8038 277.465 97.6705C277.465 97.5374 277.465 97.4066 277.465 97.2784V96.9266ZM301.185 101.454H298.673V91.9826H294.994V89.9829H304.897V91.9826H301.185V101.454ZM315.851 89.9507H322.202V92.0148H316.235C314.976 92.0148 314.347 92.5163 314.347 93.5186C314.347 93.9453 314.491 94.2549 314.779 94.4469C315.056 94.6601 315.424 94.7666 315.883 94.7666H319.067C319.685 94.7666 320.235 94.8093 320.715 94.8947C321.152 94.9907 321.603 95.2493 322.067 95.6708C322.531 96.0921 322.763 96.8733 322.763 98.0148C322.763 98.324 322.739 98.6093 322.691 98.8705C322.643 99.132 322.547 99.4385 322.403 99.7903C322.259 100.143 322.013 100.452 321.667 100.719C321.32 100.985 320.907 101.172 320.427 101.278C319.989 101.396 319.424 101.454 318.731 101.454H312.299V99.3905H318.347C318.944 99.3905 319.405 99.3025 319.731 99.1267C320.056 98.9506 320.219 98.6173 320.219 98.1266V97.8866C320.187 97.5559 320.101 97.316 319.963 97.1666C319.781 97.0068 319.576 96.8998 319.344 96.8465C319.115 96.7933 318.84 96.7667 318.52 96.7667H315.667C314.437 96.7667 313.488 96.5105 312.822 95.9987C312.152 95.4866 311.819 94.628 311.819 93.4226C311.819 92.8149 311.92 92.2706 312.123 91.7907C312.325 91.3111 312.603 90.9402 312.955 90.6788C313.307 90.4176 313.712 90.2334 314.171 90.1269C314.587 90.0097 315.147 89.9507 315.851 89.9507ZM339.62 89.9507V91.9187H335.652C334.948 91.9187 334.388 92.087 333.972 92.423C333.556 92.759 333.289 93.1319 333.172 93.5428C333.055 93.9532 332.969 94.3319 332.916 94.6786C332.863 95.0255 332.836 95.3694 332.836 95.7107V95.9186V96.0948C332.836 96.2441 332.841 96.4066 332.852 96.5827C332.863 96.7589 332.884 96.9719 332.916 97.2226C332.948 97.4731 333.02 97.7426 333.132 98.0306C333.244 98.3186 333.401 98.5852 333.601 98.8308C333.868 99.1078 334.156 99.2813 334.465 99.3505C334.772 99.4199 335.172 99.4544 335.66 99.4544H339.62V101.454H335.569C334.804 101.454 334.153 101.388 333.617 101.255C333.078 101.121 332.54 100.852 331.999 100.446C331.351 99.8921 330.889 99.2253 330.617 98.4467C330.348 97.6678 330.212 96.8252 330.212 95.9186V95.2308C330.212 94.8146 330.255 94.4094 330.34 94.0149C330.425 93.6199 330.532 93.2469 330.66 92.8947C330.788 92.5428 330.937 92.2336 331.108 91.9668C331.279 91.7004 331.529 91.4013 331.86 91.071C332.191 90.7403 332.591 90.4977 333.06 90.3427C333.529 90.1881 333.969 90.0842 334.38 90.0309C334.791 89.9776 335.204 89.9507 335.62 89.9507H339.62ZM347.821 101.454V89.9507H350.237V94.6067H354.669V89.9507H357.069V101.454H354.669V96.6386H350.237V101.454H347.821ZM374.534 89.9507V91.9509H370.566C369.702 91.9509 369.033 92.1773 368.558 92.6309C368.083 93.084 367.846 93.7533 367.846 94.6389H374.534V96.6386H367.846C367.846 97.5986 368.022 98.2733 368.374 98.6626C368.726 99.0518 369.054 99.2813 369.358 99.3505C369.662 99.4199 370.065 99.4544 370.566 99.4544H374.534V101.454H370.47C369.702 101.454 369.049 101.388 368.51 101.255C367.971 101.121 367.43 100.852 366.886 100.446C366.235 99.8921 365.774 99.2253 365.502 98.4467C365.23 97.6678 365.094 96.8252 365.094 95.9186L365.126 95.2308C365.126 94.8146 365.169 94.4094 365.254 94.0149C365.339 93.6199 365.446 93.2469 365.574 92.8947C365.702 92.5428 365.851 92.2336 366.022 91.9668C366.193 91.7004 366.443 91.4013 366.774 91.071C367.105 90.7403 367.505 90.4977 367.974 90.3427C368.443 90.1881 368.883 90.0842 369.294 90.0309C369.705 89.9776 370.118 89.9507 370.534 89.9507H374.534Z" fill="#7B7979"></path><path d="M416.31 99.6785V101.583H413.238H413.03H412.854C412.406 101.583 412.009 101.561 411.662 101.519C411.315 101.476 410.939 101.364 410.534 101.183C410.129 101.001 409.771 100.751 409.462 100.431C409.153 100.11 408.926 99.7666 408.782 99.3989C408.638 99.0308 408.54 98.6387 408.486 98.2226C408.433 97.8069 408.406 97.3749 408.406 96.9266V90.0789H410.806V96.3986C410.806 96.6761 410.806 96.9134 410.806 97.1107C410.806 97.3079 410.825 97.5774 410.862 97.9187C410.9 98.2601 411.009 98.5693 411.19 98.8466C411.35 99.1241 411.617 99.3319 411.99 99.4706C412.363 99.6092 412.843 99.6785 413.43 99.6785H416.31ZM423.984 90.0789H426.511V101.583H423.984V90.0789ZM443.977 90.0789V92.0469H440.009C439.305 92.0469 438.745 92.215 438.329 92.551C437.913 92.887 437.646 93.2601 437.529 93.671C437.411 94.0814 437.326 94.4601 437.273 94.8068C437.219 95.1537 437.193 95.4976 437.193 95.8389V96.0468V96.2229C437.193 96.3722 437.198 96.5348 437.209 96.7109C437.22 96.887 437.241 97.1 437.273 97.3507C437.305 97.6012 437.377 97.8707 437.489 98.1587C437.601 98.4467 437.758 98.7133 437.958 98.9589C438.225 99.2359 438.513 99.4094 438.822 99.4786C439.129 99.5481 439.529 99.5825 440.017 99.5825H443.977V101.583H439.926C439.161 101.583 438.51 101.516 437.974 101.383C437.435 101.249 436.897 100.98 436.355 100.575C435.708 100.02 435.246 99.3534 434.974 98.5749C434.705 97.796 434.569 96.9534 434.569 96.0468V95.3588C434.569 94.9427 434.612 94.5376 434.697 94.143C434.782 93.7481 434.889 93.375 435.017 93.0227C435.145 92.6709 435.294 92.3616 435.465 92.0948C435.635 91.8284 435.886 91.5294 436.217 91.1992C436.547 90.8685 436.947 90.6258 437.417 90.4709C437.886 90.3162 438.326 90.2123 438.737 90.159C439.147 90.1056 439.561 90.0789 439.977 90.0789H443.977ZM452.178 101.583V90.0789H454.594V94.7349H459.026V90.0789H461.425V101.583H459.026V96.7667H454.594V101.583H452.178ZM475.211 101.583H472.699V92.1107H469.019V90.111H478.923V92.1107H475.211V101.583ZM491.508 101.583H488.996V92.1107H485.316V90.111H495.22V92.1107H491.508V101.583ZM511.485 90.0789V92.079H507.518C506.654 92.079 505.984 92.3054 505.51 92.759C505.035 93.2121 504.797 93.8814 504.797 94.767H511.485V96.7667H504.797C504.797 97.7267 504.974 98.4014 505.325 98.7907C505.677 99.1799 506.005 99.4094 506.309 99.4786C506.614 99.5481 507.016 99.5825 507.518 99.5825H511.485V101.583H507.422C506.654 101.583 506 101.516 505.462 101.383C504.923 101.249 504.381 100.98 503.837 100.575C503.187 100.02 502.726 99.3534 502.453 98.5749C502.182 97.796 502.046 96.9534 502.046 96.0468L502.078 95.3588C502.078 94.9427 502.12 94.5376 502.205 94.143C502.291 93.7481 502.397 93.375 502.526 93.0227C502.654 92.6709 502.803 92.3616 502.973 92.0948C503.144 91.8284 503.395 91.5294 503.726 91.1992C504.056 90.8685 504.456 90.6258 504.926 90.4709C505.395 90.3162 505.835 90.2123 506.245 90.159C506.656 90.1056 507.069 90.0789 507.485 90.0789H511.485ZM528.662 90.0789V92.0469H524.694C523.99 92.0469 523.431 92.215 523.014 92.551C522.598 92.887 522.332 93.2601 522.214 93.671C522.097 94.0814 522.012 94.4601 521.958 94.8068C521.905 95.1537 521.878 95.4976 521.878 95.8389V96.0468V96.2229C521.878 96.3722 521.884 96.5348 521.895 96.7109C521.905 96.887 521.926 97.1 521.958 97.3507C521.991 97.6012 522.062 97.8707 522.175 98.1587C522.287 98.4467 522.444 98.7133 522.644 98.9589C522.911 99.2359 523.199 99.4094 523.508 99.4786C523.815 99.5481 524.214 99.5825 524.702 99.5825H528.662V101.583H524.612C523.846 101.583 523.196 101.516 522.66 101.383C522.121 101.249 521.582 100.98 521.041 100.575C520.393 100.02 519.932 99.3534 519.66 98.5749C519.391 97.796 519.255 96.9534 519.255 96.0468V95.3588C519.255 94.9427 519.297 94.5376 519.383 94.143C519.468 93.7481 519.575 93.375 519.702 93.0227C519.831 92.6709 519.98 92.3616 520.151 92.0948C520.321 91.8284 520.572 91.5294 520.902 91.1992C521.233 90.8685 521.633 90.6258 522.102 90.4709C522.572 90.3162 523.012 90.2123 523.422 90.159C523.833 90.1056 524.247 90.0789 524.662 90.0789H528.662ZM536.864 101.583V90.0789H539.28V94.7349H543.711V90.0789H546.111V101.583H543.711V96.7667H539.28V101.583H536.864ZM557.368 101.583H554.889V90.0789H557.96L562.648 98.3666L562.552 90.0789H564.984V101.583H562.2L557.272 92.895L557.368 101.583ZM573.714 90.0789H576.241V101.583H573.714V90.0789ZM587.467 101.583H585.051V90.0789H587.467V95.6148L591.995 90.0789H594.891L590.267 95.7107L594.922 101.583H591.835L587.467 95.8706V101.583Z" fill="#7B7979"></path><path fill-rule="evenodd" clip-rule="evenodd" d="M77.1877 83.0948C72.0355 93.9937 60.9244 101.583 48.1232 101.583C30.5235 101.583 16.1125 87.237 16.0036 69.6618H22.2588C22.3676 83.781 33.976 95.3287 48.1232 95.3287C62.2711 95.3287 73.8803 83.7849 73.9899 69.6618H80.3872C80.4964 83.781 92.1044 95.3287 106.253 95.3287C120.399 95.3287 132.008 83.7849 132.118 69.6618H138.373C138.263 87.2337 123.852 101.583 106.253 101.583C93.4525 101.583 82.3389 93.9937 77.1877 83.0948Z" fill="#7B7979"></path><path fill-rule="evenodd" clip-rule="evenodd" d="M73.9948 0H80.3823V32.0496H73.9948V0Z" fill="#7B7979"></path><path fill-rule="evenodd" clip-rule="evenodd" d="M19.1456 37.3729C26.5603 37.3729 32.5712 43.3942 32.5712 50.8175C32.5712 58.2443 26.5603 64.2635 19.1456 64.2635C11.7313 64.2635 5.7192 58.2443 5.7192 50.8175C5.7192 43.3942 11.7313 37.3729 19.1456 37.3729ZM12.4071 68.7683C5.15786 66.0391 0 59.0323 0 50.8175C0 40.2299 8.5724 31.6461 19.1456 31.6461C29.7184 31.6461 38.2904 40.2299 38.2904 50.8175C38.2904 58.9121 33.2825 65.8324 26.2012 68.6447C21.9205 70.3436 16.5925 70.3455 12.4071 68.7683Z" fill="#231F20"></path><path fill-rule="evenodd" clip-rule="evenodd" d="M77.2036 37.373C84.6191 37.373 90.6296 43.3942 90.6296 50.8176C90.6296 58.2444 84.6191 64.2635 77.2036 64.2635C69.7897 64.2635 63.778 58.2444 63.778 50.8176C63.778 43.3942 69.7897 37.373 77.2036 37.373ZM70.4655 68.7683C63.2156 66.0389 58.0588 59.0324 58.0588 50.8176C58.0588 40.2304 66.6308 31.6466 77.2036 31.6466C87.7769 31.6466 96.3488 40.2304 96.3488 50.8176C96.3488 58.9121 91.3403 65.8325 84.2596 68.6445C79.9793 70.3433 74.6509 70.3453 70.4655 68.7683Z" fill="#ED1C24"></path><path fill-rule="evenodd" clip-rule="evenodd" d="M135.259 37.373C142.675 37.373 148.685 43.3942 148.685 50.8176C148.685 58.2444 142.675 64.2635 135.259 64.2635C127.845 64.2635 121.833 58.2444 121.833 50.8176C121.833 43.3942 127.845 37.373 135.259 37.373ZM128.521 68.7683C121.272 66.0389 116.114 59.0324 116.114 50.8176C116.114 40.2304 124.686 31.6466 135.259 31.6466C145.832 31.6466 154.404 40.2304 154.404 50.8176C154.404 58.9121 149.396 65.8325 142.315 68.6445C138.034 70.3433 132.707 70.3453 128.521 68.7683Z" fill="#FBC707"></path></svg>